<mxfile host="app.diagrams.net" modified="2023-07-11T08:57:55.920Z" agent="Mozilla/5.0 (Macintosh; Intel Mac OS X 10_15_7) AppleWebKit/537.36 (KHTML, like Gecko) Chrome/114.0.0.0 Safari/537.36" etag="pIDTzvrLmczvZ_h4WoRL" version="21.6.1" type="device">
  <diagram name="Side-1" id="NZKtHc8JouDEG-MxU4M3">
    <mxGraphModel dx="873" dy="475" grid="0" gridSize="10" guides="1" tooltips="1" connect="1" arrows="1" fold="1" page="1" pageScale="1" pageWidth="1169" pageHeight="827" math="0" shadow="0">
      <root>
        <mxCell id="0" />
        <mxCell id="1" parent="0" />
        <mxCell id="XdvBYJU34_IIMdK2Z1Uv-1" value="" style="sketch=0;pointerEvents=1;shadow=0;dashed=0;html=1;strokeColor=none;labelPosition=center;verticalLabelPosition=bottom;verticalAlign=top;outlineConnect=0;align=center;shape=mxgraph.office.users.user;fillColor=#2072B8;" vertex="1" parent="1">
          <mxGeometry x="331" y="410" width="46" height="50" as="geometry" />
        </mxCell>
        <mxCell id="XdvBYJU34_IIMdK2Z1Uv-2" value="" style="sketch=0;pointerEvents=1;shadow=0;dashed=0;html=1;strokeColor=none;labelPosition=center;verticalLabelPosition=bottom;verticalAlign=top;outlineConnect=0;align=center;shape=mxgraph.office.users.user;fillColor=#DA4026;" vertex="1" parent="1">
          <mxGeometry x="811" y="410" width="46" height="50" as="geometry" />
        </mxCell>
        <mxCell id="XdvBYJU34_IIMdK2Z1Uv-3" value="" style="endArrow=classic;html=1;rounded=0;shape=flexArrow;fillColor=#f8cecc;strokeColor=#b85450;" edge="1" parent="1">
          <mxGeometry width="50" height="50" relative="1" as="geometry">
            <mxPoint x="386" y="423" as="sourcePoint" />
            <mxPoint x="806" y="423" as="targetPoint" />
          </mxGeometry>
        </mxCell>
        <mxCell id="XdvBYJU34_IIMdK2Z1Uv-4" value="" style="endArrow=classic;html=1;rounded=0;shape=flexArrow;fillColor=#f8cecc;strokeColor=#b85450;" edge="1" parent="1">
          <mxGeometry width="50" height="50" relative="1" as="geometry">
            <mxPoint x="797" y="450" as="sourcePoint" />
            <mxPoint x="381" y="451" as="targetPoint" />
          </mxGeometry>
        </mxCell>
        <mxCell id="XdvBYJU34_IIMdK2Z1Uv-5" value="&lt;h1 style=&quot;line-height: 40%;&quot;&gt;&lt;span style=&quot;background-color: initial; font-size: 12px; font-weight: normal;&quot;&gt;The attacker crafts a URL containing the malicious string and sends it to the victim.&lt;/span&gt;&lt;br&gt;&lt;/h1&gt;" style="text;html=1;strokeColor=none;fillColor=none;spacing=5;spacingTop=-20;whiteSpace=wrap;overflow=hidden;rounded=0;" vertex="1" parent="1">
          <mxGeometry x="731" y="480" width="180" height="70" as="geometry" />
        </mxCell>
        <mxCell id="XdvBYJU34_IIMdK2Z1Uv-6" value="&lt;font color=&quot;#ff7c78&quot; style=&quot;font-size: 33px;&quot;&gt;&lt;b&gt;1&lt;/b&gt;&lt;/font&gt;" style="ellipse;whiteSpace=wrap;html=1;aspect=fixed;fillColor=#f8cecc;strokeColor=#b85450;" vertex="1" parent="1">
          <mxGeometry x="671" y="480" width="60" height="60" as="geometry" />
        </mxCell>
        <mxCell id="XdvBYJU34_IIMdK2Z1Uv-7" value="&lt;font color=&quot;#ff7c78&quot; style=&quot;font-size: 33px;&quot;&gt;&lt;b&gt;4&lt;/b&gt;&lt;/font&gt;" style="ellipse;whiteSpace=wrap;html=1;aspect=fixed;fillColor=#f8cecc;strokeColor=#b85450;" vertex="1" parent="1">
          <mxGeometry x="290" y="465" width="60" height="60" as="geometry" />
        </mxCell>
        <mxCell id="XdvBYJU34_IIMdK2Z1Uv-8" value="&lt;h1 style=&quot;line-height: 40%;&quot;&gt;&lt;span style=&quot;background-color: initial; font-size: 12px; font-weight: normal;&quot;&gt;The User&#39;s browser interprets the malicious JavaScript in the server&#39;s response as part of the legitimate web page and executes the code.&lt;/span&gt;&lt;br&gt;&lt;/h1&gt;" style="text;html=1;strokeColor=none;fillColor=none;spacing=5;spacingTop=-20;whiteSpace=wrap;overflow=hidden;rounded=0;" vertex="1" parent="1">
          <mxGeometry x="351" y="460" width="220" height="70" as="geometry" />
        </mxCell>
        <mxCell id="XdvBYJU34_IIMdK2Z1Uv-9" value="" style="sketch=0;pointerEvents=1;shadow=0;dashed=0;html=1;strokeColor=none;labelPosition=center;verticalLabelPosition=bottom;verticalAlign=top;outlineConnect=0;align=center;shape=mxgraph.office.servers.physical_host_farm;fillColor=#2072B8;" vertex="1" parent="1">
          <mxGeometry x="581" y="100" width="56" height="49" as="geometry" />
        </mxCell>
        <mxCell id="XdvBYJU34_IIMdK2Z1Uv-10" value="Secure Website" style="text;html=1;strokeColor=none;fillColor=none;align=center;verticalAlign=middle;whiteSpace=wrap;rounded=0;" vertex="1" parent="1">
          <mxGeometry x="559" y="149" width="100" height="30" as="geometry" />
        </mxCell>
        <mxCell id="XdvBYJU34_IIMdK2Z1Uv-12" value="" style="curved=1;endArrow=classic;html=1;rounded=0;fillColor=#1ba1e2;strokeColor=#006EAF;" edge="1" parent="1" source="XdvBYJU34_IIMdK2Z1Uv-1" target="XdvBYJU34_IIMdK2Z1Uv-9">
          <mxGeometry width="50" height="50" relative="1" as="geometry">
            <mxPoint x="351" y="400" as="sourcePoint" />
            <mxPoint x="381" y="240" as="targetPoint" />
            <Array as="points">
              <mxPoint x="371" y="330" />
              <mxPoint x="501" y="170" />
            </Array>
          </mxGeometry>
        </mxCell>
        <mxCell id="XdvBYJU34_IIMdK2Z1Uv-13" value="&lt;font color=&quot;#ff7c78&quot; style=&quot;font-size: 33px;&quot;&gt;&lt;b&gt;2&lt;/b&gt;&lt;/font&gt;" style="ellipse;whiteSpace=wrap;html=1;aspect=fixed;fillColor=#f8cecc;strokeColor=#b85450;" vertex="1" parent="1">
          <mxGeometry x="310" y="137" width="60" height="60" as="geometry" />
        </mxCell>
        <mxCell id="XdvBYJU34_IIMdK2Z1Uv-14" value="&lt;h1 style=&quot;line-height: 40%;&quot;&gt;&lt;span style=&quot;background-color: initial; font-size: 12px; font-weight: normal;&quot;&gt;The user is tricked into opening the link and requesting the malicious URL from the website&lt;/span&gt;&lt;br&gt;&lt;/h1&gt;" style="text;html=1;strokeColor=none;fillColor=none;spacing=5;spacingTop=-20;whiteSpace=wrap;overflow=hidden;rounded=0;" vertex="1" parent="1">
          <mxGeometry x="371" y="129" width="160" height="70" as="geometry" />
        </mxCell>
        <mxCell id="XdvBYJU34_IIMdK2Z1Uv-15" value="" style="curved=1;endArrow=classic;html=1;rounded=0;fillColor=#a0522d;strokeColor=#6D1F00;exitX=0.25;exitY=0;exitDx=0;exitDy=0;" edge="1" parent="1" source="XdvBYJU34_IIMdK2Z1Uv-10">
          <mxGeometry width="50" height="50" relative="1" as="geometry">
            <mxPoint x="681" y="190" as="sourcePoint" />
            <mxPoint x="361" y="410" as="targetPoint" />
            <Array as="points">
              <mxPoint x="541" y="160" />
            </Array>
          </mxGeometry>
        </mxCell>
        <mxCell id="XdvBYJU34_IIMdK2Z1Uv-16" value="&lt;h1 style=&quot;line-height: 40%;&quot;&gt;&lt;span style=&quot;background-color: initial; font-size: 12px; font-weight: normal;&quot;&gt;The website includes the malicious string in its response to the user&lt;/span&gt;&lt;br&gt;&lt;/h1&gt;" style="text;html=1;strokeColor=none;fillColor=none;spacing=5;spacingTop=-20;whiteSpace=wrap;overflow=hidden;rounded=0;" vertex="1" parent="1">
          <mxGeometry x="559.5" y="220" width="160" height="60" as="geometry" />
        </mxCell>
        <mxCell id="XdvBYJU34_IIMdK2Z1Uv-17" value="&lt;font color=&quot;#ff7c78&quot; style=&quot;font-size: 33px;&quot;&gt;&lt;b&gt;3&lt;/b&gt;&lt;/font&gt;" style="ellipse;whiteSpace=wrap;html=1;aspect=fixed;fillColor=#f8cecc;strokeColor=#b85450;" vertex="1" parent="1">
          <mxGeometry x="498.5" y="220" width="60" height="60" as="geometry" />
        </mxCell>
        <mxCell id="XdvBYJU34_IIMdK2Z1Uv-18" value="&lt;h1 style=&quot;line-height: 40%;&quot;&gt;&lt;span style=&quot;background-color: initial; font-size: 12px; font-weight: normal;&quot;&gt;The User´s sensitive information is sent to the attacker´s server&lt;/span&gt;&lt;br&gt;&lt;/h1&gt;" style="text;html=1;strokeColor=none;fillColor=none;spacing=5;spacingTop=-20;whiteSpace=wrap;overflow=hidden;rounded=0;" vertex="1" parent="1">
          <mxGeometry x="571" y="350" width="160" height="60" as="geometry" />
        </mxCell>
        <mxCell id="XdvBYJU34_IIMdK2Z1Uv-19" value="&lt;font color=&quot;#ff7c78&quot; style=&quot;font-size: 33px;&quot;&gt;&lt;b&gt;5&lt;/b&gt;&lt;/font&gt;" style="ellipse;whiteSpace=wrap;html=1;aspect=fixed;fillColor=#f8cecc;strokeColor=#b85450;" vertex="1" parent="1">
          <mxGeometry x="510" y="349" width="60" height="60" as="geometry" />
        </mxCell>
      </root>
    </mxGraphModel>
  </diagram>
</mxfile>
